<svg width="144" height="129" viewBox="0 0 144 129" fill="none" xmlns="http://www.w3.org/2000/svg">
<path d="M33.714 30.7178C15.1236 30.7178 0 45.8698 0 64.494C0 83.1181 15.1241 98.2846 33.714 98.2846C52.3039 98.2846 67.428 83.1255 67.428 64.494C67.428 45.862 52.3039 30.7178 33.714 30.7178ZM33.714 94.2145C17.3594 94.2145 4.0626 80.8869 4.0626 64.4958C4.0626 48.111 17.3657 34.7897 33.714 34.7897C50.0686 34.7897 63.3654 48.1173 63.3654 64.4958C63.3654 80.8806 50.0623 94.2145 33.714 94.2145ZM33.714 37.8824C19.0609 37.8824 7.1352 49.8223 7.1352 64.4958C7.1352 79.1688 19.0532 91.1164 33.714 91.1164C48.3671 91.1164 60.2856 79.1764 60.2856 64.4958C60.2856 49.8151 48.3676 37.8824 33.714 37.8824ZM33.714 87.0517C21.3039 87.0517 11.1996 76.9361 11.1996 64.503C11.1996 52.0698 21.2965 41.9615 33.714 41.9615C46.1241 41.9615 56.2212 52.077 56.2212 64.503C56.2212 76.936 46.1243 87.0517 33.714 87.0517ZM44.3875 72.3222L38.6219 66.5389C38.882 65.912 39.0297 65.2216 39.0297 64.4961C39.0297 62.2842 37.6726 60.3824 35.7461 59.5862V53.3027C35.7461 52.1757 34.8391 51.267 33.7141 51.267C32.5891 51.267 31.6821 52.1757 31.6821 53.3027V59.5862C29.7555 60.3893 28.3985 62.2842 28.3985 64.4961C28.3985 67.4335 30.7821 69.8215 33.7141 69.8215C34.4313 69.8215 35.1204 69.6736 35.7461 69.4129L41.5047 75.1892C41.9055 75.5907 42.4258 75.7879 42.9461 75.7879C43.4664 75.7879 43.9867 75.5907 44.3805 75.1962C45.175 74.4002 45.175 73.1112 44.3805 72.3151L44.3875 72.3222ZM32.4625 64.4961C32.4625 63.8058 33.025 63.2493 33.714 63.2493C34.4031 63.2493 34.9656 63.8058 34.9656 64.4961C34.9656 64.8413 34.8249 65.1512 34.6 65.3766L34.5929 65.3837L34.5859 65.3907C34.3609 65.6161 34.0445 65.757 33.707 65.757C33.0179 65.757 32.4554 65.1935 32.4554 64.5032L32.4625 64.4961ZM31.682 45.7308C31.682 44.6107 32.5961 43.695 33.714 43.695C34.832 43.695 35.746 44.6107 35.746 45.7308C35.746 46.8508 34.832 47.7595 33.714 47.7595C32.5961 47.7595 31.682 46.8508 31.682 45.7308ZM21.8945 49.7882C22.6961 50.5772 22.6961 51.8732 21.8945 52.6694C21.107 53.4654 19.8204 53.4654 19.0186 52.6694C18.2311 51.8805 18.2311 50.5844 19.0186 49.7882C19.8202 48.9852 21.0998 48.9852 21.8945 49.7882ZM17.0079 64.4965C17.0079 65.6236 16.0938 66.5323 14.9758 66.5323C13.8579 66.5323 12.9438 65.6235 12.9438 64.4965C12.9438 63.3765 13.8579 62.4677 14.9758 62.4677C16.0938 62.4677 17.0079 63.3765 17.0079 64.4965ZM21.8945 76.3378C22.6961 77.1268 22.6961 78.4228 21.8945 79.219C21.107 80.015 19.8204 80.015 19.0186 79.219C18.2311 78.43 18.2311 77.134 19.0186 76.3378C19.8202 75.5418 21.0998 75.5418 21.8945 76.3378ZM35.746 83.2764C35.746 84.4035 34.832 85.3122 33.714 85.3122C32.589 85.3122 31.682 84.4035 31.682 83.2764C31.682 82.1564 32.589 81.2407 33.714 81.2407C34.832 81.2407 35.746 82.1564 35.746 83.2764ZM48.4022 76.3378C49.1967 77.1268 49.1967 78.4228 48.4022 79.219C47.6147 80.015 46.3281 80.015 45.5263 79.219C44.7388 78.43 44.7388 77.134 45.5263 76.3378C46.3279 75.5418 47.6075 75.5418 48.4022 76.3378ZM50.4272 64.4965C50.4272 63.3765 51.3342 62.4677 52.4592 62.4677C53.5772 62.4677 54.4912 63.3765 54.4912 64.4965C54.4912 65.6236 53.5772 66.5323 52.4592 66.5323C51.3342 66.5323 50.4272 65.6235 50.4272 64.4965ZM48.4022 49.7882C49.1967 50.5772 49.1967 51.8732 48.4022 52.6694C47.6147 53.4654 46.3281 53.4654 45.5263 52.6694C44.7388 51.8805 44.7388 50.5844 45.5263 49.7882C46.3279 48.9852 47.6075 48.9852 48.4022 49.7882ZM108.934 19.4203C108.934 18.2932 109.841 17.3846 110.966 17.3846H112.752C113.877 17.3846 114.784 18.2933 114.784 19.4203C114.784 20.5474 113.877 21.4561 112.752 21.4561H110.966C109.841 21.4561 108.934 20.5474 108.934 19.4203ZM132.82 19.4203C132.82 20.5474 131.913 21.4561 130.788 21.4561H120.635C119.51 21.4561 118.603 20.5474 118.603 19.4203C118.603 18.2933 119.51 17.3846 120.635 17.3846H130.788C131.913 17.3846 132.82 18.2933 132.82 19.4203ZM132.82 26.7604C132.82 27.8875 131.913 28.7961 130.788 28.7961H110.911C109.786 28.7961 108.879 27.8874 108.879 26.7604C108.879 25.6333 109.786 24.7246 110.911 24.7246H130.788C131.913 24.7246 132.82 25.6333 132.82 26.7604ZM99.7382 36.8759H141.968C143.093 36.8759 144 35.9672 144 34.8402V11.3411C144 10.214 143.093 9.30531 141.968 9.30531H99.7382C98.6132 9.30531 97.7062 10.214 97.7062 11.3411V21.055H89.7116C89.0085 18.5895 87.0678 16.6454 84.607 15.941V2.03577C84.607 0.908692 83.7 0 82.575 0C81.45 0 80.543 0.908711 80.543 2.03577V15.941C77.4421 16.8286 75.164 19.6955 75.164 23.0908C75.164 26.4861 77.4421 29.3462 80.543 30.2336V57.3537C77.4421 58.2413 75.164 61.1082 75.164 64.4965C75.164 67.8847 77.4421 70.7589 80.543 71.6463V98.7664C77.4421 99.654 75.164 102.521 75.164 105.909C75.164 109.297 77.4421 112.172 80.543 113.059V126.964C80.543 128.091 81.45 129 82.575 129C83.7 129 84.607 128.084 84.607 126.964V113.059C87.068 112.355 89.0086 110.41 89.7116 107.945H97.7062V117.659C97.7062 118.786 98.6132 119.695 99.7382 119.695H141.968C143.093 119.695 144 118.786 144 117.659V94.1598C144 93.0328 143.093 92.1241 141.968 92.1241H99.7382C98.6132 92.1241 97.7062 93.0328 97.7062 94.1598V103.874H89.7046C89.0015 101.415 87.0608 99.4712 84.6 98.7668V71.6467C87.061 70.9422 89.0015 68.9979 89.7046 66.5326H97.6992V76.2466C97.6992 77.3736 98.6062 78.2823 99.7312 78.2823H141.961C143.086 78.2823 143.993 77.3736 143.993 76.2466V52.7475C143.993 51.6204 143.086 50.7117 141.961 50.7117H99.7312C98.6062 50.7117 97.6992 51.6204 97.6992 52.7475V62.4614H89.6976C88.9945 60.003 87.0538 58.0588 84.593 57.3544V30.2343C87.0539 29.5299 88.9945 27.5856 89.6976 25.1273H97.6992V34.8412C97.6992 35.9683 98.6062 36.877 99.7312 36.877L99.7382 36.8759ZM101.77 13.3769H139.936V32.804H101.77V13.3769ZM101.77 96.2034H139.936V115.631H101.77V96.2034ZM101.77 54.7829H139.936V74.2101H101.77V54.7829ZM85.9288 105.916C85.9288 107.769 84.4241 109.283 82.5678 109.283C80.7187 109.283 79.2209 107.776 79.2209 105.916C79.2209 104.063 80.7256 102.563 82.5678 102.563C84.4169 102.563 85.9288 104.07 85.9288 105.916ZM85.9288 64.4956C85.9288 66.3481 84.4241 67.8627 82.5678 67.8627C80.7187 67.8627 79.2209 66.3553 79.2209 64.4956C79.2209 62.643 80.7256 61.1425 82.5678 61.1425C84.4169 61.1425 85.9288 62.65 85.9288 64.4956ZM82.5678 26.4491C80.7187 26.4491 79.2209 24.9417 79.2209 23.096C79.2209 21.2435 80.7256 19.7289 82.5678 19.7289C84.4169 19.7289 85.9288 21.2363 85.9288 23.096C85.9288 24.9486 84.4241 26.4491 82.5678 26.4491ZM108.934 60.8312C108.934 59.7042 109.841 58.7955 110.966 58.7955H112.752C113.877 58.7955 114.784 59.7042 114.784 60.8312C114.784 61.9583 113.877 62.867 112.752 62.867H110.966C109.841 62.867 108.934 61.9583 108.934 60.8312ZM132.82 60.8312C132.82 61.9583 131.913 62.867 130.788 62.867H120.635C119.51 62.867 118.603 61.9583 118.603 60.8312C118.603 59.7042 119.51 58.7955 120.635 58.7955H130.788C131.913 58.7955 132.82 59.7042 132.82 60.8312ZM132.82 68.1713C132.82 69.2984 131.913 70.2071 130.788 70.2071H110.911C109.786 70.2071 108.879 69.2983 108.879 68.1713C108.879 67.0442 109.786 66.1355 110.911 66.1355H130.788C131.913 66.1355 132.82 67.0442 132.82 68.1713ZM108.934 102.245C108.934 101.118 109.841 100.209 110.966 100.209H112.752C113.877 100.209 114.784 101.118 114.784 102.245C114.784 103.372 113.877 104.281 112.752 104.281H110.966C109.841 104.281 108.934 103.372 108.934 102.245ZM132.82 102.245C132.82 103.372 131.913 104.281 130.788 104.281H120.635C119.51 104.281 118.603 103.372 118.603 102.245C118.603 101.118 119.51 100.209 120.635 100.209H130.788C131.913 100.209 132.82 101.118 132.82 102.245ZM132.82 109.585C132.82 110.712 131.913 111.621 130.788 111.621H110.911C109.786 111.621 108.879 110.712 108.879 109.585C108.879 108.458 109.786 107.549 110.911 107.549H130.788C131.913 107.549 132.82 108.458 132.82 109.585Z" fill="#1E9AB9"/>
</svg>
