<svg width="156" height="149" viewBox="0 0 156 149" fill="none" xmlns="http://www.w3.org/2000/svg">
<path d="M153.685 53.8108H99.5295C98.9157 53.8108 98.3256 54.0556 97.8915 54.4907L80.6462 71.7756C80.2121 72.2106 79.9679 72.8021 79.9679 73.4174V146.678C79.9679 147.962 81.0056 149 82.2842 149H153.684C154.964 149 156 147.96 156 146.678V56.1342C156.002 54.851 154.964 53.8108 153.685 53.8108ZM97.2115 61.7394V71.094H87.8783L97.2115 61.7394ZM151.367 144.357H84.6022V75.739H99.5295C100.81 75.739 101.846 74.6989 101.846 73.4174V58.4558H151.367V144.357ZM113.056 69.4505C113.056 68.1673 114.094 67.1289 115.373 67.1289H142.093C143.374 67.1289 144.41 68.169 144.41 69.4505C144.41 70.732 143.372 71.7721 142.093 71.7721H115.374C114.094 71.7721 113.056 70.732 113.056 69.4505ZM144.412 123.895C144.412 125.178 143.374 126.217 142.095 126.217H124.641C123.361 126.217 122.325 125.177 122.325 123.895C122.325 122.612 123.363 121.574 124.641 121.574H142.095C143.374 121.574 144.412 122.614 144.412 123.895ZM113.056 134.785C113.056 133.501 114.094 132.463 115.373 132.463H142.093C143.374 132.463 144.41 133.503 144.41 134.785C144.41 136.068 143.372 137.106 142.093 137.106H115.374C114.094 137.106 113.056 136.068 113.056 134.785ZM106.526 127.041L100.009 134.661C99.5753 135.169 98.9445 135.464 98.2764 135.471C98.2679 135.471 98.2595 135.471 98.2493 135.471C97.5914 135.471 96.9656 135.191 96.5248 134.701L92.8485 130.598C91.9938 129.645 92.0718 128.177 93.0248 127.318C93.9778 126.462 95.4412 126.54 96.2975 127.495L98.2086 129.628L103.007 124.018C103.84 123.044 105.303 122.932 106.275 123.766C107.247 124.602 107.359 126.067 106.526 127.041ZM113.056 113.006C113.056 111.723 114.094 110.684 115.373 110.684H142.093C143.374 110.684 144.41 111.725 144.41 113.006C144.41 114.289 143.372 115.328 142.093 115.328H115.374C114.094 115.329 113.056 114.289 113.056 113.006ZM144.412 102.117C144.412 103.4 143.374 104.438 142.095 104.438H124.641C123.361 104.438 122.325 103.398 122.325 102.117C122.325 100.834 123.363 99.7951 124.641 99.7951H142.095C143.374 99.7951 144.412 100.835 144.412 102.117ZM113.056 91.2274C113.056 89.9442 114.094 88.9058 115.373 88.9058H142.093C143.374 88.9058 144.41 89.9459 144.41 91.2274C144.41 92.5089 143.372 93.549 142.093 93.549H115.374C114.094 93.5508 113.056 92.5106 113.056 91.2274ZM144.412 80.3398C144.412 81.623 143.374 82.6614 142.095 82.6614H124.641C123.361 82.6614 122.325 81.6213 122.325 80.3398C122.325 79.0566 123.363 78.0182 124.641 78.0182H142.095C143.374 78.0165 144.412 79.0566 144.412 80.3398ZM106.526 105.263L100.009 112.884C99.5753 113.392 98.9445 113.688 98.2764 113.694C98.2679 113.694 98.2595 113.694 98.2493 113.694C97.5914 113.694 96.9656 113.414 96.5248 112.924L92.8485 108.822C91.9938 107.868 92.0718 106.4 93.0248 105.543C93.9761 104.686 95.4412 104.765 96.2958 105.72L98.2069 107.853L103.004 102.242C103.837 101.269 105.3 101.156 106.272 101.991C107.247 102.824 107.359 104.289 106.526 105.263ZM103.007 80.4622C103.84 79.4883 105.303 79.3761 106.275 80.2106C107.247 81.0451 107.359 82.5119 106.526 83.4857L100.009 91.105C99.5753 91.6132 98.9445 91.9089 98.2764 91.9157C98.2679 91.9157 98.2595 91.9157 98.2493 91.9157C97.5914 91.9157 96.9656 91.6353 96.5248 91.1458L92.8485 87.043C91.9938 86.0895 92.0718 84.6211 93.0248 83.7645C93.9761 82.9079 95.4412 82.9861 96.2958 83.9412L98.2069 86.0742L103.007 80.4622ZM73.7175 0H19.5617C18.9478 0 18.3577 0.244742 17.9236 0.679838L0.678283 17.963C0.244182 18.3981 0 18.9896 0 19.6048V92.8658C0 94.149 1.03777 95.1875 2.31634 95.1875H73.7158C74.9961 95.1875 76.0321 94.1473 76.0321 92.8658V2.32165C76.0338 1.04015 74.9961 0 73.7175 0ZM17.2437 7.92861V17.2832H7.91048L17.2437 7.92861ZM71.3995 90.5442H4.63437V21.9282H19.5617C20.8419 21.9282 21.878 20.888 21.878 19.6065V4.64329H71.3995V90.5442ZM33.0883 15.638C33.0883 14.3548 34.1261 13.3163 35.4047 13.3163H62.1256C63.4059 13.3163 64.442 14.3565 64.442 15.638C64.442 16.9212 63.4042 17.9596 62.1256 17.9596H35.4064C34.1261 17.9613 33.0883 16.9212 33.0883 15.638ZM64.4437 70.0845C64.4437 71.3677 63.4059 72.4061 62.1273 72.4061H44.6734C43.3932 72.4061 42.3571 71.366 42.3571 70.0845C42.3571 68.803 43.3949 67.7628 44.6734 67.7628H62.1273C63.4059 67.7611 64.4437 68.8013 64.4437 70.0845ZM33.0883 80.9721C33.0883 79.6889 34.1261 78.6504 35.4047 78.6504H62.1256C63.4059 78.6504 64.442 79.6906 64.442 80.9721C64.442 82.2535 63.4042 83.2937 62.1256 83.2937H35.4064C34.1261 83.2954 33.0883 82.2552 33.0883 80.9721ZM26.5582 73.2287L20.0416 80.848C19.6075 81.3562 18.9767 81.6519 18.3086 81.6587C18.3001 81.6587 18.2916 81.6587 18.2814 81.6587C17.6235 81.6587 16.9978 81.3783 16.5569 80.8888L12.8806 76.786C12.026 75.8325 12.104 74.364 13.0569 73.5057C14.0099 72.6491 15.4733 72.7273 16.3297 73.6825L18.2407 75.8155L23.0396 70.2051C23.8722 69.2313 25.3356 69.1191 26.3072 69.9536C27.2771 70.7898 27.3908 72.2565 26.5582 73.2287ZM33.0883 59.1952C33.0883 57.912 34.1261 56.8735 35.4047 56.8735H62.1256C63.4059 56.8735 64.442 57.9137 64.442 59.1952C64.442 60.4766 63.4042 61.5168 62.1256 61.5168H35.4064C34.1261 61.5168 33.0883 60.4766 33.0883 59.1952ZM64.4437 48.3059C64.4437 49.5891 63.4059 50.6275 62.1273 50.6275H44.6734C43.3932 50.6275 42.3571 49.5874 42.3571 48.3059C42.3571 47.0244 43.3949 45.9842 44.6734 45.9842H62.1273C63.4059 45.9825 64.4437 47.0227 64.4437 48.3059ZM33.0883 37.4166C33.0883 36.1334 34.1261 35.0949 35.4047 35.0949H62.1256C63.4059 35.0949 64.442 36.1351 64.442 37.4166C64.442 38.6981 63.4042 39.7382 62.1256 39.7382H35.4064C34.1261 39.7382 33.0883 38.6981 33.0883 37.4166ZM64.4437 26.5273C64.4437 27.8105 63.4059 28.8489 62.1273 28.8489H44.6734C43.3932 28.8489 42.3571 27.8088 42.3571 26.5273C42.3571 25.2458 43.3949 24.2056 44.6734 24.2056H62.1273C63.4059 24.2056 64.4437 25.2441 64.4437 26.5273ZM26.5582 51.4518L20.0416 59.0711C19.6075 59.5793 18.9767 59.875 18.3086 59.8818C18.3001 59.8818 18.2916 59.8818 18.2814 59.8818C17.6235 59.8818 16.9978 59.6014 16.5569 59.1119L12.8806 55.0091C12.026 54.0556 12.104 52.5871 13.0569 51.7288C14.0099 50.8722 15.4733 50.9504 16.3297 51.9056L18.2407 54.0386L23.0396 48.4282C23.8722 47.4544 25.3356 47.3422 26.3072 48.1767C27.2771 49.0112 27.3908 50.4779 26.5582 51.4518ZM23.0396 26.6513C23.8722 25.6775 25.3356 25.5653 26.3072 26.3998C27.2788 27.2343 27.3908 28.701 26.5582 29.6749L20.0416 37.2942C19.6075 37.8024 18.9767 38.0981 18.3086 38.1049C18.3001 38.1049 18.2899 38.1049 18.2814 38.1049C17.6235 38.1049 16.9978 37.8245 16.5569 37.335L12.8806 33.2322C12.026 32.2787 12.104 30.8102 13.0569 29.9536C14.0082 29.097 15.4733 29.1752 16.328 30.1304L18.239 32.2634L23.0396 26.6513ZM83.0812 27.0864L99.6957 36.701L98.9547 37.9859C98.2527 39.2028 98.3053 40.6815 99.0904 41.8457C99.7754 42.8621 100.893 43.4484 102.088 43.4484C102.261 43.4484 102.438 43.4365 102.612 43.411L115.461 41.5772C116.975 41.3613 118.282 40.4758 119.047 39.1467C119.812 37.8194 119.924 36.2404 119.354 34.8179L114.516 22.7491C113.994 21.4455 112.8 20.5736 111.403 20.4733C110.004 20.373 108.702 21.0682 108 22.2851L107.259 23.57L90.644 13.9554C90.1116 13.6477 89.4791 13.5645 88.8856 13.7225C88.2921 13.8823 87.7868 14.2715 87.4782 14.8052L82.2316 23.9116C81.594 25.0248 81.9739 26.4457 83.0812 27.0864ZM90.3337 19.1408L106.948 28.7554C107.481 29.0631 108.113 29.1463 108.707 28.9883C109.3 28.8285 109.806 28.4393 110.114 27.9056L110.984 26.3947L115.055 36.5498C115.093 36.6432 115.086 36.7367 115.035 36.8234C114.984 36.9118 114.908 36.9628 114.808 36.9781L103.998 38.5213L104.868 37.0104C105.507 35.8988 105.127 34.4797 104.02 33.8389L87.4052 24.2243L90.3337 19.1408ZM72.9205 115.72L56.306 106.106L57.047 104.821C57.749 103.604 57.6964 102.125 56.9113 100.961C56.1262 99.7985 54.7781 99.1985 53.3894 99.3956L40.541 101.23C39.0267 101.445 37.7193 102.331 36.9546 103.66C36.1898 104.989 36.0779 106.566 36.6476 107.989L41.4855 120.058C42.0078 121.361 43.2015 122.233 44.5988 122.333C45.9961 122.43 47.3001 121.739 48.0021 120.52L48.7431 119.235L65.3577 128.85C65.7121 129.055 66.1122 129.161 66.5158 129.161C66.7159 129.161 66.9177 129.135 67.1161 129.081C67.7096 128.921 68.2149 128.532 68.5235 127.998L73.7701 118.892C74.4076 117.782 74.0278 116.363 72.9205 115.72ZM65.668 123.668L49.0534 114.053C48.6973 113.847 48.2988 113.742 47.8953 113.742C47.6952 113.742 47.4934 113.767 47.295 113.822C46.7015 113.982 46.1962 114.371 45.8875 114.904L45.0176 116.415L40.9463 106.26C40.9089 106.167 40.9157 106.073 40.9666 105.985C41.0175 105.897 41.0938 105.846 41.1938 105.83L52.004 104.287L51.1341 105.798C50.4948 106.91 50.8746 108.329 51.9819 108.969L68.5965 118.584L65.668 123.668Z" fill="#1E9AB9"/>
</svg>
