<svg width="144" height="107" viewBox="0 0 144 107" fill="none" xmlns="http://www.w3.org/2000/svg">
<path d="M7.18611 106.025H35.9306C37.775 106.025 39.4458 105.308 40.7213 104.162C41.9968 105.308 43.6677 106.025 45.5121 106.025H53.0095C56.1714 105.947 56.1535 101.315 53.0095 101.25H45.5121C44.1886 101.25 43.1167 100.181 43.1167 98.8621V8.13779C43.1167 6.8187 44.1886 5.7503 45.5121 5.7503H74.2565C75.5799 5.7503 76.6519 6.8187 76.6519 8.13779V22.4627C76.6998 25.6082 81.3948 25.5903 81.4426 22.4627V8.13779C81.4426 4.18656 78.2208 0.975342 74.2565 0.975342H45.5121C43.6677 0.975342 41.9968 1.69159 40.7213 2.83765C39.4458 1.69166 37.775 0.975342 35.9306 0.975342H7.18611C3.22183 0.975342 0 4.18656 0 8.13779V98.8621C0 102.813 3.22183 106.025 7.18611 106.025ZM4.79074 8.13855C4.79074 6.81947 5.86267 5.75107 7.18611 5.75107H35.9306C37.254 5.75107 38.3259 6.81947 38.3259 8.13855V98.8628C38.3259 100.182 37.254 101.25 35.9306 101.25H7.18611C5.86267 101.25 4.79074 100.182 4.79074 98.8628V8.13855Z" fill="#1E9AB9"/>
<path d="M16.8196 52.9098H26.8524C29.6178 52.9098 31.8688 50.7911 31.8688 48.1885V15.1393C31.8688 12.5366 29.6178 10.418 26.8524 10.418H16.8196C14.0543 10.418 11.8032 12.5366 11.8032 15.1393V48.1885C11.8032 50.7911 14.0543 52.9098 16.8196 52.9098ZM16.8196 15.1393H26.8524V48.1885L16.8196 48.1944V15.1393Z" fill="#1E9AB9"/>
<path d="M29.3883 76.5164H14.2837C10.9795 76.5828 10.9733 82.3515 14.2837 82.418H29.3883C32.6925 82.3516 32.6988 76.5828 29.3883 76.5164Z" fill="#1E9AB9"/>
<path d="M29.3883 84.7786H14.2837C10.9795 84.8317 10.9733 89.4467 14.2837 89.4999H29.3883C32.6925 89.4468 32.6988 84.8317 29.3883 84.7786Z" fill="#1E9AB9"/>
<path d="M29.3883 91.8606H14.2837C10.9795 91.9137 10.9733 96.5287 14.2837 96.5819H29.3883C32.6925 96.5288 32.6988 91.9138 29.3883 91.8606Z" fill="#1E9AB9"/>
<path d="M67.2787 24.5934C68.583 24.5934 69.6394 23.5361 69.6394 22.2308V15.1431C69.6394 12.5383 67.5208 10.418 64.9181 10.418H55.4755C52.8728 10.418 50.7542 12.5383 50.7542 15.1431V48.219C50.8073 51.314 55.4223 51.3376 55.4755 48.219V15.1431H64.9181V22.2308C64.9181 23.5361 65.9745 24.5934 67.2787 24.5934Z" fill="#1E9AB9"/>
<path d="M53.1282 76.5164C49.9331 76.568 49.9926 82.3591 53.1282 82.418C56.2579 82.3516 56.2579 76.5828 53.1282 76.5164Z" fill="#1E9AB9"/>
<path d="M53.1282 84.7786C49.9331 84.8199 49.9926 89.4527 53.1282 89.4999C56.2579 89.4468 56.2579 84.8317 53.1282 84.7786Z" fill="#1E9AB9"/>
<path d="M53.1282 91.8606C49.9331 91.9019 49.9926 96.5348 53.1282 96.5819C56.2579 96.5288 56.2579 91.9138 53.1282 91.8606Z" fill="#1E9AB9"/>
<path d="M139.215 38.9253C139.215 34.9593 135.996 31.7361 132.034 31.7361H89.8792C89.1911 30.1365 89.0056 26.8893 86.5583 26.9433H60.2296C58.9072 26.9433 57.8362 28.0157 57.8362 29.3397V101.232C57.8362 103.874 59.9842 106.025 62.6231 106.025H139.213C141.852 106.025 144 103.874 144 101.232V43.7181C144 41.076 141.854 38.9253 139.215 38.9253ZM132.034 36.5289C133.357 36.5289 134.428 37.6013 134.428 38.9253H92.2726L91.4768 36.5289H132.034ZM139.215 101.233H62.6246V31.7376H84.8357L88.2763 42.0841C88.5994 43.0606 89.5149 43.7196 90.5442 43.7196H139.21V101.233L139.215 101.233Z" fill="#1E9AB9"/>
<path d="M99.1476 96.5819H127.476C131.382 96.5819 134.557 93.4068 134.557 89.4999V80.0573C134.557 76.1505 131.382 72.9753 127.476 72.9753H99.1476C95.2408 72.9753 92.0657 76.1505 92.0657 80.0573V89.4999C92.0657 93.4068 95.2408 96.5819 99.1476 96.5819ZM96.787 80.0565C96.787 78.7523 97.8434 77.6959 99.1476 77.6959H127.476C128.78 77.6959 129.836 78.7523 129.836 80.0565V89.4992C129.836 90.8034 128.78 91.8598 127.476 91.8598H99.1476C97.8434 91.8598 96.787 90.8034 96.787 89.4992V80.0565Z" fill="#1E9AB9"/>
<path d="M86.1639 75.3359C84.8596 75.3359 83.8032 76.3923 83.8032 77.6966V91.8605C83.8032 93.1648 84.8596 94.2212 86.1639 94.2212C87.4681 94.2212 88.5245 93.1648 88.5245 91.8605V77.6966C88.5245 76.3923 87.4681 75.3359 86.1639 75.3359Z" fill="#1E9AB9"/>
<path d="M79.0818 75.3359C77.7776 75.3359 76.7212 76.3923 76.7212 77.6966V91.8605C76.7212 93.1648 77.7776 94.2212 79.0818 94.2212C80.3861 94.2212 81.4425 93.1648 81.4425 91.8605V77.6966C81.4425 76.3923 80.3861 75.3359 79.0818 75.3359Z" fill="#1E9AB9"/>
</svg>
