<svg width="153" height="153" viewBox="0 0 153 153" fill="none" xmlns="http://www.w3.org/2000/svg">
<path d="M10.9635 14.5356C10.4535 14.0256 10.1985 13.5156 10.1985 12.7505C10.1985 11.9854 10.4535 11.4755 10.9635 10.9654C11.9835 9.94544 13.5135 9.94544 14.5335 10.9654C15.0435 11.4754 15.2985 11.9854 15.2985 12.7505C15.2985 13.5156 15.0435 14.0255 14.5335 14.5356C14.0235 15.0457 13.5135 15.3006 12.7484 15.3006C11.9833 15.3006 11.4736 15.0456 10.9635 14.5356Z" fill="#1E9AB9"/>
<path d="M21.1642 14.5356C20.6542 14.0256 20.3992 13.5156 20.3992 12.7505C20.3992 11.9854 20.6542 11.4755 21.1642 10.9654C22.1842 9.94544 23.7142 9.94544 24.7342 10.9654C25.2442 11.4754 25.4992 11.9854 25.4992 12.7505C25.4992 13.5156 25.2442 14.0255 24.7342 14.5356C24.2242 15.0457 23.7142 15.3006 22.9491 15.3006C22.184 15.3006 21.6743 15.0456 21.1642 14.5356Z" fill="#1E9AB9"/>
<path d="M31.3644 14.5356C30.8544 14.0256 30.5994 13.5156 30.5994 12.7505C30.5994 11.9854 30.8544 11.4755 31.3644 10.9654C32.3844 9.94544 33.9144 9.94544 34.9344 10.9654C35.4444 11.4754 35.6994 11.9854 35.6994 12.7505C35.6994 13.5156 35.4444 14.0255 34.9344 14.5356C34.4244 15.0457 33.9144 15.3006 33.1493 15.3006C32.3842 15.3006 31.8745 15.0456 31.3644 14.5356Z" fill="#1E9AB9"/>
<path d="M40.7986 12.7517C40.7986 11.2217 41.8186 10.2017 43.3486 10.2017H109.649C111.179 10.2017 112.199 11.2217 112.199 12.7517C112.199 14.2817 111.179 15.3017 109.649 15.3017H43.3486C41.8186 15.3017 40.7986 14.2817 40.7986 12.7517Z" fill="#1E9AB9"/>
<path d="M145.35 86.7013H122.401V7.65004C122.401 3.3151 119.086 0 114.751 0H7.65004C3.3151 0 0 3.31494 0 7.65004V114.751C0 119.086 3.31494 122.401 7.65004 122.401H53.5503V145.35C53.5503 149.685 56.8652 153 61.2003 153H145.35C149.685 153 153 149.685 153 145.35V94.3497C153 90.0147 149.685 86.7013 145.35 86.7013ZM7.64923 5.10084H114.75C116.28 5.10084 117.3 6.12085 117.3 7.65086V20.4009H5.09921V7.65086C5.09921 6.12085 6.11922 5.10084 7.64923 5.10084ZM7.64923 117.301C6.11922 117.301 5.09921 116.281 5.09921 114.751V25.5001H117.3V86.7005H61.1995C56.8646 86.7005 53.5495 90.0154 53.5495 94.3505V117.3L7.64923 117.301ZM68.8495 147.902V142.802H73.9496V147.902H68.8495ZM89.2497 147.902V132.602H94.3497V147.902H89.2497ZM109.65 147.902V122.401H114.75V147.902H109.65ZM130.05 147.902V127.502H135.15V147.902H130.05ZM147.901 145.352C147.901 146.882 146.881 147.902 145.351 147.902H140.251V124.952C140.251 123.422 139.231 122.402 137.701 122.402H127.501C125.971 122.402 124.951 123.422 124.951 124.952V147.902H119.851V119.851C119.851 118.321 118.831 117.301 117.301 117.301H107.101C105.571 117.301 104.551 118.321 104.551 119.851V147.902H99.4505V130.051C99.4505 128.521 98.4305 127.501 96.9005 127.501H86.7005C85.1705 127.501 84.1504 128.521 84.1504 130.051V147.902H79.0504V140.252C79.0504 138.722 78.0304 137.702 76.5004 137.702H66.3004C64.7703 137.702 63.7503 138.722 63.7503 140.252V147.902H61.2003C59.6703 147.902 58.6503 146.882 58.6503 145.352V94.3513C58.6503 92.8213 59.6703 91.8013 61.2003 91.8013H145.35C146.88 91.8013 147.9 92.8213 147.9 94.3513L147.901 145.352Z" fill="#1E9AB9"/>
<path d="M12.7494 53.552H30.6003C32.1303 53.552 33.1503 52.532 33.1503 51.002V33.1511C33.1503 31.6211 32.1303 30.6011 30.6003 30.6011C19.3802 30.6011 10.2002 39.7811 10.2002 51.0012C10.2002 52.5312 11.2194 53.552 12.7494 53.552ZM28.0495 35.9573V48.4523H15.5545C16.5745 42.0774 21.6745 36.9773 28.0495 35.9573Z" fill="#1E9AB9"/>
<path d="M20.3987 61.2011C20.3987 72.4212 29.5787 81.6012 40.7988 81.6012C52.0189 81.6012 61.1989 72.4212 61.1989 61.2011C61.1989 49.9811 52.0189 40.801 40.7988 40.801C39.2688 40.801 38.2488 41.821 38.2488 43.351V58.6511H22.9487C21.4187 58.6511 20.3987 59.6711 20.3987 61.2011ZM40.7988 63.7511C42.3288 63.7511 43.3488 62.7311 43.3488 61.2011V46.156C50.4888 47.431 56.0989 53.5509 56.0989 61.2011C56.0989 69.6161 49.2138 76.5012 40.7988 76.5012C33.1487 76.5012 27.0287 70.8912 25.7536 63.7511H40.7988Z" fill="#1E9AB9"/>
<path d="M132.599 102.002C130.049 102.002 127.499 103.277 126.224 105.316L119.849 103.786C119.594 99.9614 116.279 96.9014 112.199 96.9014C107.864 96.9014 104.549 100.216 104.549 104.551V105.571L96.899 109.397C95.6239 107.867 93.8389 107.102 91.7989 107.102C87.464 107.102 84.1489 110.417 84.1489 114.752V115.772L76.4988 119.597C75.2238 118.067 73.4388 117.302 71.3988 117.302C67.0639 117.302 63.7488 120.617 63.7488 124.952C63.7488 129.287 67.0637 132.602 71.3988 132.602C75.7339 132.602 79.0489 129.287 79.0489 124.952V123.932L86.6989 120.107C87.9739 121.382 90.0138 122.147 92.0538 122.147C96.3888 122.147 99.7039 118.832 99.7039 114.497V113.477L107.354 109.652C108.629 110.927 110.669 111.692 112.709 111.692C115.259 111.692 117.809 110.417 119.084 108.377L125.459 109.907C125.714 113.732 129.029 116.792 133.109 116.792C137.444 116.792 140.759 113.477 140.759 109.142C140.759 104.807 136.934 102.002 132.599 102.002ZM71.3987 127.502C69.8686 127.502 68.8486 126.482 68.8486 124.952C68.8486 123.422 69.8686 122.402 71.3987 122.402C72.9287 122.402 73.9487 123.422 73.9487 124.952C73.9487 126.482 72.9287 127.502 71.3987 127.502ZM91.7988 117.302C90.2688 117.302 89.2488 116.282 89.2488 114.752C89.2488 113.222 90.2688 112.202 91.7988 112.202C93.3288 112.202 94.3488 113.222 94.3488 114.752C94.3488 116.282 93.3288 117.302 91.7988 117.302ZM112.199 107.102C110.669 107.102 109.649 106.082 109.649 104.552C109.649 103.022 110.669 102.002 112.199 102.002C113.729 102.002 114.749 103.022 114.749 104.552C114.749 106.082 113.729 107.102 112.199 107.102ZM132.599 112.202C131.069 112.202 130.049 111.182 130.049 109.652C130.049 108.122 131.069 107.102 132.599 107.102C134.129 107.102 135.149 108.122 135.149 109.652C135.149 111.182 134.129 112.202 132.599 112.202Z" fill="#1E9AB9"/>
<path d="M48.4479 89.2505C48.4479 90.7805 47.4279 91.8005 45.8979 91.8005H12.7485C11.2185 91.8005 10.1985 90.7805 10.1985 89.2505C10.1985 87.7204 11.2185 86.7004 12.7485 86.7004H45.8979C47.4279 86.7004 48.4479 87.7204 48.4479 89.2505Z" fill="#1E9AB9"/>
<path d="M48.4479 109.651C48.4479 111.181 47.4279 112.201 45.8979 112.201H12.7485C11.2185 112.201 10.1985 111.181 10.1985 109.651C10.1985 108.121 11.2185 107.101 12.7485 107.101H45.8979C47.4279 107.101 48.4479 108.121 48.4479 109.651Z" fill="#1E9AB9"/>
<path d="M48.4476 99.4504C48.4476 100.98 47.4276 102 45.8976 102H25.4975C23.9675 102 22.9475 100.98 22.9475 99.4504C22.9475 97.9204 23.9675 96.9004 25.4975 96.9004H45.8976C47.4276 96.9004 48.4476 97.9204 48.4476 99.4504Z" fill="#1E9AB9"/>
<path d="M10.1985 99.4504C10.1985 97.9204 11.2185 96.9004 12.7485 96.9004H15.2985C16.8285 96.9004 17.8485 97.9204 17.8485 99.4504C17.8485 100.98 16.8285 102 15.2985 102H12.7485C11.2185 102 10.1985 100.98 10.1985 99.4504Z" fill="#1E9AB9"/>
<path d="M63.7493 79.3064V33.1516C63.7493 31.6216 64.7693 30.6016 66.2993 30.6016C67.8293 30.6016 68.8493 31.6216 68.8493 33.1516V70.6372L74.4593 62.2222C74.9693 61.7122 75.4793 61.2022 76.2444 61.2022C77.0095 61.2022 77.7744 61.4572 78.2844 61.9672L84.1495 67.8323L95.1147 56.8672C95.6247 56.3572 96.3897 56.1022 97.4096 56.1022C98.1746 56.3572 98.9396 56.8672 99.1947 57.3772L101.235 61.7121L107.1 40.0374C107.355 38.7624 108.885 37.9974 110.16 38.2523C111.435 38.5073 112.2 40.0374 111.945 41.3124L104.295 69.3633C104.04 70.3833 103.02 71.1484 102 71.1484C100.98 71.1484 99.9599 70.6384 99.4499 69.8734L95.8799 62.7334L85.6799 72.9334C84.6599 73.9534 83.1299 73.9534 82.1099 72.9334L76.7549 67.5785L71.1449 76.5036H109.65C111.18 76.5036 112.201 77.5236 112.201 79.0536C112.201 80.5836 111.18 81.6036 109.65 81.6036H66.3011C66.0461 81.6036 65.7911 81.6036 65.5361 81.3486H65.2811C65.2811 81.3486 65.0261 81.3486 65.0261 81.0936L64.7711 80.8386C64.5161 80.8386 64.5161 80.5836 64.5161 80.5836C64.5161 80.5836 64.2611 80.3286 64.2611 80.0736C64.2611 79.8186 64.0061 79.8186 64.0061 79.5636C63.7511 79.5636 63.7511 79.5636 63.7511 79.3086L63.7493 79.3064Z" fill="#1E9AB9"/>
<path d="M73.9497 33.1516C73.9497 31.6216 74.9697 30.6016 76.4997 30.6016H79.0497C80.5797 30.6016 81.5997 31.6216 81.5997 33.1516C81.5997 34.6816 80.5797 35.7016 79.0497 35.7016H76.4997C74.9697 35.7016 73.9497 34.6816 73.9497 33.1516Z" fill="#1E9AB9"/>
<path d="M86.699 33.1516C86.699 31.6216 87.719 30.6016 89.249 30.6016H101.999C103.529 30.6016 104.549 31.6216 104.549 33.1516C104.549 34.6816 103.529 35.7016 101.999 35.7016H89.249C87.719 35.7016 86.699 34.6816 86.699 33.1516Z" fill="#1E9AB9"/>
<path d="M73.9497 43.3518C73.9497 41.8218 74.9697 40.8018 76.4997 40.8018H79.0497C80.5797 40.8018 81.5997 41.8218 81.5997 43.3518C81.5997 44.8818 80.5797 45.9018 79.0497 45.9018H76.4997C74.9697 45.9018 73.9497 44.8818 73.9497 43.3518Z" fill="#1E9AB9"/>
<path d="M86.699 43.3518C86.699 41.8218 87.719 40.8018 89.249 40.8018H99.449C100.979 40.8018 101.999 41.8218 101.999 43.3518C101.999 44.8818 100.979 45.9018 99.449 45.9018H89.249C87.719 45.9018 86.699 44.8818 86.699 43.3518Z" fill="#1E9AB9"/>
</svg>
